<?xml version="1.0" encoding="UTF-8"?><svg id="Layer_2" xmlns="http://www.w3.org/2000/svg" viewBox="0 0 544.08 477.47"><defs><style>.cls-1,.cls-2,.cls-3,.cls-4{fill-rule:evenodd;}.cls-1,.cls-2,.cls-5{fill:none;stroke-linecap:round;}.cls-1,.cls-3,.cls-4{stroke-width:20px;}.cls-1,.cls-3,.cls-4,.cls-5{stroke-linejoin:round;}.cls-1,.cls-4{stroke:#584d62;}.cls-6{fill:#ef4681;}.cls-7{fill:#398f43;}.cls-8{fill:#4daf4f;}.cls-2{stroke:#4c4255;stroke-width:9px;}.cls-3{fill:#736780;stroke:#736780;}.cls-4{fill:#584d62;}.cls-5{stroke:#32362f;stroke-width:6px;}</style></defs><g id="Layer_1-2"><path class="cls-4" d="m46.7,184.7h367.03c0,106.63-14.5,177.72-110.11,248.81h-146.81c-90.34-62.53-110.11-142.18-110.11-248.81Z"/><path class="cls-3" d="m10,397.97h441.97c-38.24,35.54-38.24,56.26-132.59,69.5h-176.79c-95.89-10.85-95.89-33.96-132.59-69.5h0Z"/><path class="cls-1" d="m532.14,298.49c-8.4,42.06-41.74,67.39-74.46,56.59-32.72-10.8-52.43-53.65-44.03-95.71,8.4-42.06,41.74-67.39,74.46-56.59,32.72,10.8,52.43,53.65,44.03,95.71Z"/><path class="cls-2" d="m191.81,4.5c70,70.72-64.66,75.35,0,147.69"/><path class="cls-2" d="m237.33,6.7c70,70.72-64.66,75.35,0,147.69"/><path class="cls-2" d="m287.4,6.7c70,70.72-64.66,75.35,0,147.69"/><path class="cls-7" d="m268.37,228.07c14.95-3.72,22.13,7.46,22.13,7.46,0,0-1.57,4.08-6.23,7.9-3.75,2.99-9.47,5.84-17.98,5.87-2.31-1.95-5-3.05-8-3.22-.86-.02-1.81.04-2.67.19,6.82-5.99,10.58-12.59,12.74-18.19Z"/><path class="cls-6" d="m284.19,243.51l1.62,1.93c4.74,3.13,7.87,9.39,7.52,16.42-.34,7.03-4.59,13.09-8.14,15.4l-.96.4c-2.4-5.3-6.87-8.85-12.18-8.99l-.42-.1c.02-.34.21-.68.22-1.02.09-.08,0-.17.1-.25.21-.85.26-1.71.31-2.74.31-6.34-2.07-11.98-5.95-15.26,8.5-.03,14.13-2.8,17.89-5.78Z"/><path class="cls-8" d="m271.03,215.79s.08,5.32-2.66,12.28c-2.07,5.52-5.92,12.2-12.83,18.27-4.68.9-8.63,4.4-11.02,9.23h-.17c-.71-8.35-6.06-14.84-13.86-14.96,14.81-26.97,40.55-24.83,40.55-24.83Z"/><path class="cls-6" d="m255.62,246.43c.87-.15,1.73-.3,2.67-.19,3.09.08,5.69,1.27,8,3.22,3.88,3.28,6.26,8.92,5.95,15.26-.04.86-.17,1.8-.31,2.74-.09.08,0,.17-.1.25-.02.34-.21.68-.22,1.02-1.32,5.8-4.98,10.51-9.55,12.61-.09.08-.17,0-.26.08-10.7,2.89-18.26-5.81-19.14-14.16h-.17c1.34-2.89,1.92-5.87,2.03-8.1.06-1.2.03-2.32-.09-3.35h.17c2.31-5.08,6.34-8.49,11.02-9.4h0Z"/><path class="cls-6" d="m260.39,299.76l-2.4,1.74c4.39-5.37,5.14-13.76,3.86-19.12l-.29-1.04c.09-.08.17,0,.26-.08,4.57-2.11,8.23-6.82,9.55-12.61l.42.1c5.32.14,9.95,3.7,12.18,8.99,1.16,2.69,1.85,5.97,1.6,9.31-.28,5.66-2.58,10.57-6,13.74-1.89,1.75-4.19,3.06-6.69,3.42-6.33,1.29-9.99-1.21-12.49-4.45Z"/><path class="cls-6" d="m230.57,240.7c7.89.21,13.07,6.7,13.86,14.96.03,1.12.14,2.32.09,3.35-.11,2.23-.77,5.13-2.03,8.1-1.83,3.98-4.76,7.85-9.55,9.18-1.22.31-2.52.53-4.06.49-5.49-.15-10.59-2.94-12.78-9.09-.99-2.51-1.36-5.61-1.17-9.38.04-.86.08-1.54.2-2.31,1.37-8.63,7.53-15.16,14.75-15.31.26-.08.43-.07.69.02Z"/><path class="cls-8" d="m192.13,213.67s25.89-.76,37.92,27.01c-7.22.15-13.47,6.76-14.75,15.31-1.82-4.85-5.5-8.64-10-9.71l.1-.25c-6.8-6.62-10.14-13.83-11.82-19.79-2.05-7.26-1.44-12.57-1.44-12.57Z"/><path class="cls-6" d="m264.24,327.92l-.4,1.19c5.72,12.85-8.41,26.12-18.11,22.51l-.08-.09c.12-.77.16-1.45.19-2.14.26-5.31-2.08-10.18-6.04-13.38l-1.03-1.83c10.37-4.87,10.77-19.96,10.11-27.53v-.17c4.08-.66,7.09-2.64,9.29-5.33l2.32-1.83c2.41,3.33,6.16,5.74,12.74,4.55,2.43-.45,4.72-1.76,6.69-3.42l.08.09c4.61,12.74-3.8,28.38-15.77,27.38Z"/><path class="cls-6" d="m261.72,281.35l.29,1.04c1.19,5.44.45,13.65-3.86,19.12-2.19,2.69-5.21,4.67-9.28,5.33-1.13.23-2.25.28-3.53.16-8.75-.23-13.63-7.49-13.63-7.49l-.66-.53c2.77-3.87,4.3-8.89,4.57-14.38l-2.68-8.48c4.62-1.33,7.73-5.2,9.55-9.18h.17c.78,8.61,8.34,17.3,19.04,14.41Z"/><path class="cls-6" d="m205.22,246.2c4.58,1.15,8.18,4.85,10,9.71-.12.77-.25,1.54-.2,2.31-.19,3.77.27,6.79,1.17,9.38l-.09.08c-1.07,6.06-4.55,10.43-9.13,12.71-1.5.73-4.02,1.44-5.65,1.48-.17,0-.43.07-.6.07-7.03-.19-12.58-6.17-13.74-14.1-.28-1.38-.29-2.84-.22-4.21.34-6.86,3.72-12.77,8.58-15.64,2.13-1.32,4.57-2.11,7.14-2.04,1.04-.14,1.81-.04,2.74.24Z"/><path class="cls-7" d="m205.24,245.85l-.1.25c-.85-.19-1.79-.31-2.73-.42-2.57-.07-4.93.64-7.14,2.04l-.15-.35c-5.83-.16-10.4-1.48-13.92-3.29-8.46-4.43-10.59-11.78-10.59-11.78,0,0,8.17-10.68,22.72-6.34,1.76,6.05,5.19,13.18,11.91,19.88Z"/><path class="cls-6" d="m232.94,276.28l2.68,8.48c-.26,5.31-1.89,10.42-4.57,14.38-3.23,4.63-8.1,7.51-14.27,7.34-.86-.02-1.63-.13-2.39-.24-4.51-.89-8.4-3.83-10.62-7.49-.15-.35-.4-.61-.55-.96-2.5-5.04-1.75-11.63-1.62-12.4l-.09-3.35c1.63-.04,4.07-.66,5.56-1.4,4.58-2.28,8.05-6.65,9.13-12.71l.09-.08c2.19,6.15,7.29,8.95,12.78,9.09,1.38-.13,2.68-.36,3.9-.67Z"/><path class="cls-6" d="m195.2,247.47l.15.35c-4.78,2.96-8.25,8.79-8.58,15.64-.08,1.54.03,2.92.22,4.21-3.78,1.87-6.8,5.65-8.4,10.24l-1.88-.22c-3.31-2.49-6.95-8.94-6.61-15.79.34-7.03,4.08-13.1,9.11-15.97l2.06-1.75c3.52,1.81,8.01,3.05,13.92,3.29Z"/><path class="cls-6" d="m248.8,306.74c.74,7.66.34,22.75-10.03,27.62-2.29,1.14-5.07,1.75-8.41,1.58-1.37-.04-2.56-.24-3.76-.44-9.26-2.05-14.15-10.93-14.38-20.21,0-.17-.06-.43-.06-.6l2.14-8.52c.77.11,1.62.3,2.39.24,6.17.17,11.04-2.71,14.27-7.34l.66.53s4.88,7.25,13.63,7.49c1.29-.05,2.41-.11,3.54-.33Z"/><path class="cls-6" d="m201.33,281.87l.09,3.35c-.04.86-.79,7.44,1.62,12.4l-2.29,1.14c-2.59,2.08-6.45,3.69-10.65,3.49-2.39-.24-4.57-1.32-6.47-2.83-4.05-3.28-6.51-9.01-6.19-15.52.1-2.06.54-4.1,1.15-5.98,1.6-4.59,4.62-8.37,8.4-10.24,1.16,7.92,6.78,14,13.74,14.1.25.09.42.1.6.1Z"/><path class="cls-6" d="m214.3,306.16l-2.14,8.52c0,.17.06.43.06.6h-.17c-2.08,7.32-8.83,11.94-15.77,11.67-9.26-.25-15.74-8.32-14.62-18.84.22-2.65,1.35-6.48,2.06-8.78l.09-.08c1.9,1.51,4.08,2.6,6.47,2.83,4.2.2,8.06-1.41,10.65-3.49l2.29-1.14c.15.35.31.69.55.96,2.13,3.92,6.02,6.85,10.53,7.75Z"/><path class="cls-6" d="m238.68,334.44l1.03,1.83c3.97,3.2,6.3,8.06,6.04,13.38-.03.69-.07,1.37-.19,2.14-1.19,8.46-7.64,17.38-17.93,17.11-9.43-.25-16-9.87-17.06-18.05l-.37-1.13c.94.11,1.8.13,2.83,0,9.48-.6,12.54-8.84,12.85-13.38l.64-.76c1.19.2,2.38.41,3.76.44,3.43.09,6.12-.44,8.41-1.58Z"/><path class="cls-6" d="m211.96,315.36h.17c.23,9.28,5.12,18.16,14.38,20.21l-.64.76c-.22,4.46-3.38,12.78-12.85,13.38-.95.06-1.98.03-2.83,0-7.6-.8-13.14-6.96-14.08-14.11v-8.49c7.11.11,13.78-4.61,15.85-11.76Z"/><path class="cls-5" d="m215.22,255.9c-1.82-4.85-5.5-8.64-10-9.71-.85-.19-1.79-.31-2.73-.42-2.57-.07-4.93.64-7.14,2.04-4.78,2.96-8.25,8.79-8.58,15.64-.08,1.54.03,2.92.22,4.21,1.16,7.92,6.78,14,13.74,14.1.17,0,.34,0,.6-.07,1.63-.04,4.07-.66,5.56-1.4,4.58-2.28,8.05-6.65,9.13-12.71"/><path class="cls-5" d="m179.22,245.93c-5.04,2.87-8.77,8.95-9.11,15.97-.25,6.94,3.3,13.3,6.61,15.79"/><path class="cls-5" d="m285.1,277.34c3.55-2.31,7.8-8.54,8.14-15.4.34-7.03-2.78-13.29-7.52-16.42"/><path class="cls-5" d="m244.6,255.66c2.3-4.91,6.33-8.32,11.02-9.23.87-.15,1.73-.3,2.67-.19,3.09.08,5.69,1.27,8,3.22,3.88,3.28,6.26,8.92,5.95,15.26-.04.86-.17,1.8-.31,2.74-.09.08,0,.17-.1.25-.02.34-.21.68-.22,1.02-1.32,5.8-4.98,10.51-9.55,12.61-.09.08-.17,0-.26.08-10.7,2.89-18.26-5.81-19.14-14.16"/><path class="cls-5" d="m260.23,299.41l.24.26c2.41,3.33,6.16,5.74,12.74,4.55,2.43-.45,4.72-1.76,6.69-3.42,3.42-3.17,5.81-8.17,6-13.74.17-3.43-.45-6.62-1.6-9.31-2.4-5.3-6.87-8.85-12.18-8.99"/><path class="cls-5" d="m200.84,298.68c-2.59,2.08-6.45,3.69-10.65,3.49-2.39-.24-4.57-1.32-6.47-2.83-4.05-3.28-6.51-9.01-6.19-15.52.1-2.06.54-4.1,1.15-5.98,1.6-4.59,4.62-8.37,8.4-10.24"/><path class="cls-5" d="m211.96,315.36c-2.08,7.32-8.83,11.95-15.77,11.68-9.26-.25-15.74-8.32-14.62-18.84.22-2.65,1.35-6.48,2.06-8.78"/><path class="cls-5" d="m248.79,306.91c.66,7.57.35,22.58-10.11,27.53-2.29,1.14-5.07,1.75-8.41,1.58-1.37-.04-2.56-.24-3.76-.44-9.17-2.13-14.06-11.02-14.29-20.29,0-.17-.06-.43-.06-.6"/><path class="cls-5" d="m196.2,335.53c.94,7.15,6.47,13.3,14.08,14.11.94.11,1.8.13,2.83,0,9.48-.6,12.54-8.84,12.85-13.38"/><path class="cls-5" d="m210.65,350.76c.98,8.09,7.63,17.79,17.06,18.05,10.29.28,16.74-8.65,17.93-17.11.12-.77.16-1.45.19-2.14.26-5.31-2.08-10.18-6.04-13.38"/><path class="cls-5" d="m263.84,329.11c5.72,12.85-8.41,26.12-18.11,22.51"/><path class="cls-5" d="m256.64,325.31c2.58,1.7,5.12,2.45,7.51,2.69,11.98.84,20.38-14.64,15.59-27.21"/><path class="cls-5" d="m262.01,282.38c1.19,5.44.45,13.65-3.86,19.12-2.19,2.69-5.21,4.67-9.28,5.33-1.13.23-2.25.28-3.53.16-8.75-.23-13.63-7.49-13.63-7.49"/><path class="cls-5" d="m201.42,285.22c-.04.86-.79,7.44,1.62,12.4.15.35.31.69.55.96,2.22,3.66,6.12,6.6,10.62,7.49.77.11,1.62.3,2.39.24,6.17.17,11.04-2.71,14.27-7.34,2.77-3.87,4.3-8.89,4.57-14.38"/><path class="cls-5" d="m244.43,255.66c.03,1.12.14,2.32.09,3.35-.11,2.23-.77,5.13-2.03,8.1-1.83,3.98-4.76,7.85-9.55,9.18-1.22.31-2.52.53-4.06.49-5.49-.15-10.59-2.94-12.78-9.09-.99-2.51-1.36-5.61-1.17-9.38.04-.86.08-1.54.2-2.31,1.37-8.63,7.53-15.16,14.75-15.31h.51c7.98.14,13.16,6.63,14.04,14.98Z"/><path class="cls-5" d="m268.37,228.07c14.95-3.72,22.13,7.46,22.13,7.46,0,0-1.57,4.08-6.23,7.9-3.75,2.99-9.47,5.84-17.98,5.87"/><path class="cls-5" d="m230.57,240.7c14.63-26.98,40.47-24.91,40.47-24.91,0,0,.08,5.32-2.66,12.28-2.07,5.52-5.92,12.2-12.83,18.27"/><path class="cls-5" d="m193.5,226.15c-14.55-4.51-22.72,6.34-22.72,6.34,0,0,1.96,7.35,10.59,11.78,3.52,1.81,7.92,3.13,13.92,3.29"/><path class="cls-5" d="m229.97,240.6c-11.95-27.69-37.92-27.01-37.92-27.01,0,0-.6,5.3,1.45,12.39,1.6,5.88,4.94,13.09,11.82,19.79"/><path class="cls-5" d="m230.9,230.41s4.18-16.96-6.48-27.2"/></g></svg>